<svg width="413" height="169" viewBox="0 0 413 169" fill="none" xmlns="http://www.w3.org/2000/svg">
<path d="M118.299 104.38H79.8177C78.2242 104.38 76.6961 105.013 75.5694 106.14C74.4428 107.267 73.8098 108.795 73.8098 110.389V115.578H186.361V168.193H0.521301L0.603262 104.38C0.603393 99.1512 1.63334 93.9739 3.63433 89.1434C5.63532 84.313 8.56808 79.9239 12.2653 76.2269C15.9625 72.5299 20.3518 69.5973 25.1823 67.5965C30.0129 65.5957 35.1903 64.5661 40.4188 64.5662H94.391V64.5742C105.912 64.6221 115.721 64.9568 115.721 58.5524C115.721 52.1479 105.158 52.8853 95.647 52.8853H3.76849V0.268799C3.76849 0.268799 79.1783 0.305754 115.672 0.305754C152.165 0.305754 188.526 7.63142 188.526 52.3258C188.526 97.0201 158.609 104.38 118.299 104.38Z" fill="white"/>
<path d="M341.983 104.38H303.5C301.907 104.38 300.379 105.013 299.252 106.14C298.125 107.267 297.492 108.795 297.492 110.389V115.578H410.038V168.193H224.199L224.281 104.38C224.282 93.8211 228.476 83.6952 235.943 76.2292C243.409 68.7633 253.535 64.5687 264.093 64.5682H318.066V64.5762C329.588 64.6241 339.395 64.9589 339.395 58.5544C339.395 52.1499 328.832 52.8873 319.321 52.8873H227.443V0.268799C227.443 0.268799 302.853 0.305754 339.346 0.305754C375.84 0.305754 412.2 7.63142 412.2 52.3258C412.2 97.0201 382.291 104.38 341.983 104.38Z" fill="white"/>
</svg>
