<svg width="63" height="122" viewBox="0 0 63 122" fill="none" xmlns="http://www.w3.org/2000/svg">
<path d="M46.8786 1.10075H16.5319L1.35803 27.378L16.5319 53.6553H46.8786L62.0445 27.378L46.8786 1.10075Z" fill="url(#paint0_linear_1_1810)"/>
<path d="M46.8786 67.9689H16.5319L1.35803 94.2462L16.5319 120.523H46.8786L62.0445 94.2462L46.8786 67.9689Z" fill="url(#paint1_linear_1_1810)"/>
<path d="M16.0483 53.8791C16.1022 53.9727 16.1797 54.0505 16.2732 54.1045C16.3667 54.1586 16.4729 54.187 16.5809 54.1869H46.8297C46.9376 54.1868 47.0437 54.1583 47.1372 54.1043C47.2306 54.0503 47.3083 53.9726 47.3623 53.8791L62.4781 27.6898C62.5322 27.5962 62.5606 27.4901 62.5606 27.382C62.5606 27.274 62.5322 27.1679 62.4781 27.0743L47.3673 0.878957C47.3133 0.785463 47.2356 0.707794 47.1422 0.65378C47.0487 0.599765 46.9426 0.571292 46.8347 0.571209H16.5809C16.4729 0.571089 16.3667 0.599501 16.2732 0.653536C16.1797 0.70757 16.1022 0.785327 16.0483 0.878957L0.924398 27.0743C0.870379 27.1679 0.841949 27.274 0.841949 27.382C0.841949 27.4901 0.870379 27.5962 0.924398 27.6898L16.0483 53.8791ZM2.52201 28.0015H31.3501L45.7636 52.9599H16.9356L2.52201 28.0015ZM46.8297 52.3454L32.4152 27.383L46.8297 2.41764L61.2353 27.383L46.8297 52.3454ZM16.9356 1.80516H45.7636L31.3501 26.7706H2.52201L16.9356 1.80516Z" fill="white"/>
<path d="M47.3552 67.7481C47.3012 67.6545 47.2234 67.5767 47.1297 67.5227C47.0361 67.4687 46.9298 67.4403 46.8217 67.4404H16.5739C16.4659 67.4403 16.3597 67.4687 16.2662 67.5227C16.1727 67.5767 16.0951 67.6545 16.0413 67.7481L0.924398 93.9445C0.870379 94.038 0.841949 94.1442 0.841949 94.2522C0.841949 94.3603 0.870379 94.4664 0.924398 94.5599L16.0413 120.748C16.0951 120.842 16.1727 120.92 16.2662 120.974C16.3597 121.028 16.4659 121.056 16.5739 121.056H46.8217C46.9298 121.056 47.0361 121.028 47.1297 120.974C47.2234 120.92 47.3012 120.842 47.3552 120.748L62.4781 94.5599C62.5322 94.4664 62.5606 94.3603 62.5606 94.2522C62.5606 94.1442 62.5322 94.038 62.4781 93.9445L47.3552 67.7481ZM60.8805 93.6367H32.0535L17.6389 68.6703H46.468L60.8805 93.6367ZM16.5739 69.2848L30.9884 94.2512L16.5739 119.21L2.16734 94.2512L16.5739 69.2848ZM46.468 119.824H17.6389L32.0535 94.8657H60.8805L46.468 119.824Z" fill="white"/>
<defs>
<linearGradient id="paint0_linear_1_1810" x1="1.35803" y1="27.378" x2="62.0445" y2="27.378" gradientUnits="userSpaceOnUse">
<stop stop-color="#FF4454"/>
<stop offset="0.999" stop-color="#FF457A"/>
</linearGradient>
<linearGradient id="paint1_linear_1_1810" x1="1.35803" y1="94.2462" x2="62.0445" y2="94.2462" gradientUnits="userSpaceOnUse">
<stop stop-color="#FF4454"/>
<stop offset="0.999" stop-color="#FF457A"/>
</linearGradient>
</defs>
</svg>
