<svg width="957" height="70" viewBox="0 0 957 70" fill="none" xmlns="http://www.w3.org/2000/svg">
<path d="M165.507 59.599C160.25 54.099 157.807 46.507 157.807 35.706C157.807 25.07 160.341 17.254 165.557 11.812C171.957 5.13695 182.302 1.89301 197.196 1.89301C212.09 1.89301 222.431 5.13597 228.831 11.811C234.047 17.252 236.582 25.069 236.582 35.705C236.582 46.505 234.134 54.098 228.882 59.598C222.503 66.273 212.138 69.519 197.197 69.519C182.256 69.519 171.886 66.274 165.507 59.599ZM197.191 68.52C165.813 68.52 158.802 53.828 158.802 35.706C158.802 53.828 165.813 68.519 197.191 68.519V68.52ZM187.431 35.706C187.431 45.189 190.259 49.058 197.191 49.058C204.123 49.058 206.954 45.189 206.954 35.706C206.954 26.851 205.444 22.354 197.191 22.354C188.938 22.354 187.431 26.85 187.431 35.705V35.706ZM207.954 35.706C207.954 27.781 206.974 21.355 197.191 21.355C187.408 21.355 186.431 27.781 186.431 35.706C186.431 27.781 187.41 21.355 197.191 21.355C206.972 21.355 207.953 27.78 207.953 35.705L207.954 35.706ZM538.031 67.198L512.323 67.17H511.323V58.817H492.98L493.028 66.164L493.035 67.169H492.031L466.662 67.197H465.662V65.546C465.662 37.656 465.662 22.293 472.317 13.064C481.289 0.623965 498.457 0.623962 504.098 0.623962C509.398 0.623962 525.509 0.623965 533.58 13.189C539.1 21.783 539.08 36.137 539.041 59.917C539.038 61.9383 539.035 64.031 539.034 66.195V67.195L538.031 67.198ZM538.031 66.198L512.323 66.17L538.031 66.198ZM496.083 25.394C493.036 28.494 493.145 34.573 493.233 39.455C493.24 39.8783 493.247 40.2917 493.253 40.695H511.072C511.072 40.309 511.081 39.918 511.085 39.523C511.149 34.329 511.224 28.443 508.237 25.423C506.811 23.979 504.79 23.279 502.054 23.279C500.967 23.202 499.876 23.3501 498.848 23.714C497.821 24.0779 496.88 24.6498 496.084 25.394H496.083ZM512.104 37.212C512.104 29.98 511.298 22.276 502.054 22.276C493.115 22.276 492.204 30.032 492.203 36.829C492.203 30.029 493.116 22.276 502.054 22.276C511.298 22.276 512.106 29.98 512.104 37.212ZM954.678 67.198L889.437 67.164H888.437V66.164L888.319 3.89197V2.89197H956.019V24.74H917.26V28.007H944.77V42.581H917.264L917.279 45.774H955.679V67.198H954.678ZM889.437 66.164L954.68 66.198L889.437 66.164L889.319 3.89197L889.437 66.164ZM715.649 67.198L650.408 67.164H649.408V66.164L649.29 3.89197V2.89197H716.99V24.74H678.231V28.007H705.743V42.581H678.231L678.247 45.774H716.647V67.198H715.649ZM650.408 66.164L715.649 66.198L650.408 66.164L650.289 3.89197L650.408 66.164ZM636.489 67.198H610.494H609.494V44.303L599.914 66.593L599.654 67.193H587.462L587.202 66.593L577.693 44.544L577.652 66.199V67.199H549.82V66.199L549.696 4.01495V3.01495H582.155L582.407 3.64197L593.94 32.328L604.953 3.65601L605.2 3.01495H637.62V4.01495L637.496 66.199V67.199L636.489 67.198ZM636.489 66.198H610.494H636.489ZM588.119 66.198L576.702 39.722L576.652 66.198H550.816L550.692 4.013L550.816 66.198H576.652L576.702 39.722L588.119 66.198ZM454.019 67.198H428.019H427.019V44.303L417.438 66.593L417.178 67.193H404.988L404.727 66.593L395.219 44.544L395.179 66.199V67.199H367.345V66.199L367.221 4.01495V3.01495H399.681L399.933 3.64197L411.461 32.327L422.475 3.65497L422.721 3.01398H455.142V4.01398L455.018 66.198V67.198H454.019ZM454.019 66.198H428.019H454.019ZM405.649 66.198L394.231 39.722L394.182 66.198H368.343L368.219 4.013L368.343 66.198H394.179L394.228 39.722L405.649 66.198ZM119.264 66.221C119.157 61.693 117.864 51.357 108.32 50.685L108.273 66.2V67.2H79.903V2.91998H80.903L114.712 2.98895C127.712 2.98895 137.22 5.42899 142.969 10.24C147.364 13.919 149.614 18.874 149.846 25.387C150.119 29.9169 148.617 34.3749 145.658 37.816C143.638 40.1118 141.024 41.8054 138.103 42.71C144.582 47.291 149.861 57.529 149.861 66.188V67.188H148.861L120.261 67.195H119.284L119.264 66.221ZM120.264 66.198C120.156 61.647 118.803 49.651 107.323 49.651L107.274 66.198L107.323 49.651C118.8 49.652 120.153 61.647 120.261 66.198H120.264ZM108.342 32.538H110.874C116.596 32.538 122.445 31.849 122.445 26.738C122.445 22.838 118.75 20.938 111.145 20.938H108.34L108.342 32.538ZM123.442 26.738C123.442 26.638 123.442 26.538 123.436 26.438C123.44 26.536 123.441 26.637 123.441 26.739L123.442 26.738ZM123.436 26.425C123.436 26.423 123.436 26.421 123.436 26.419C123.434 26.4206 123.432 26.4226 123.431 26.425H123.436ZM123.422 26.196V26.156V26.196ZM123.416 26.121V26.086V26.121ZM123.409 26.046C123.409 26.031 123.409 26.015 123.409 25.999C123.404 26.016 123.406 26.031 123.407 26.047L123.409 26.046ZM123.402 25.972C123.402 25.932 123.392 25.891 123.387 25.851C123.39 25.892 123.395 25.932 123.4 25.973L123.402 25.972ZM123.384 25.826C123.384 25.819 123.384 25.812 123.384 25.805C123.384 25.8124 123.383 25.8197 123.382 25.827L123.384 25.826ZM123.373 25.754C123.373 25.754 123.373 25.748 123.373 25.745C123.373 25.742 123.371 25.751 123.371 25.755L123.373 25.754ZM123.362 25.683V25.663V25.683ZM856.576 67.207H830.331V26.633H807.843V2.97498H879.685V26.633H857.575V67.198L856.576 67.207ZM354.531 67.198H325.425V2.92596H355.525V67.199L354.531 67.198ZM315.494 67.198H285.499L285.207 66.726L276.931 53.438L267.938 66.758L267.638 67.198H237.174L238.174 65.655L257.682 35.51L238.168 4.54596L237.2 3.013H267.319L267.613 3.48199L277.936 19.942L288.793 3.46698L289.093 3.01697H318.527L317.505 4.56799L297.331 35.122L316.341 65.667L317.292 67.195L315.494 67.198ZM286.057 66.198L276.968 51.598L267.112 66.198L276.968 51.598L286.057 66.198ZM258.866 35.517L239.012 4.01697L258.866 35.517ZM798.146 67.173L772.646 67.117H772.159L771.859 66.733L754.017 43.86V67.116H727.497V66.116L727.361 4.125V3.125H753.361L753.661 3.54498L772.71 30.345L772.835 4.07898V3.08398H773.835H798.149H799.149V67.174L798.146 67.173ZM772.653 66.117L798.153 66.173L772.653 66.117L753.024 40.949V66.114H728.501L728.364 4.125L728.501 66.114H753.023V40.95L772.653 66.117ZM28.6709 67.173H0.0499268V2.96198H1.04993L32.7829 3.02997C57.3479 3.02997 70.8759 12.781 70.8759 30.485C70.8759 46.828 59.218 55.113 36.226 55.113C34.809 55.113 33.5169 55.086 32.4799 55.064C31.7239 55.048 31.0719 55.034 30.5459 55.034H29.6679V67.17L28.6709 67.173ZM36.231 54.117C47.955 54.117 69.8809 52.252 69.8809 30.488C69.8809 56.753 37.9479 54.037 30.5509 54.037C31.8169 54.037 33.804 54.117 36.231 54.117ZM29.7629 34.689H34.8629C41.0739 34.689 44.356 32.864 44.356 29.41C44.356 27.579 41.7229 24.855 34.4709 24.855H29.7589L29.7629 34.689Z" fill="url(#paint0_linear_1_1802)"/>
<defs>
<linearGradient id="paint0_linear_1_1802" x1="209.407" y1="303.9" x2="212.057" y2="-206.821" gradientUnits="userSpaceOnUse">
<stop stop-color="#F14243"/>
<stop offset="0.439" stop-color="#FF4454"/>
<stop offset="0.999" stop-color="#FF457A"/>
</linearGradient>
</defs>
</svg>
