<svg width="298" height="29" viewBox="0 0 298 29" fill="none" xmlns="http://www.w3.org/2000/svg">
<path d="M250.45 18.3281C250.45 12.2091 255.273 7.70905 261.75 7.70905C265.458 7.70905 268.266 8.78905 270.25 11.201L267.298 14.0081C266.635 13.2263 265.806 12.6014 264.873 12.1782C263.939 11.7551 262.923 11.5443 261.898 11.561C260.997 11.5456 260.102 11.7097 259.266 12.0437C258.429 12.3777 257.667 12.875 257.024 13.5066C256.382 14.1382 255.872 14.8914 255.523 15.7223C255.175 16.5532 254.996 17.4451 254.996 18.3461C254.996 19.247 255.175 20.1389 255.523 20.9698C255.872 21.8007 256.382 22.5539 257.024 23.1855C257.667 23.8171 258.429 24.3143 259.266 24.6484C260.102 24.9824 260.997 25.1465 261.898 25.131C262.927 25.1491 263.946 24.9353 264.881 24.5054C265.816 24.0756 266.642 23.4408 267.298 22.6481L270.25 25.4901C268.234 27.8671 265.426 28.983 261.75 28.983C255.273 28.983 250.45 24.4831 250.45 18.3281ZM212.615 26.6431L214.307 23.1151C216.36 24.5259 218.798 25.2674 221.289 25.238C224.311 25.238 225.389 24.196 225.389 22.938C225.389 18.838 213.189 21.894 213.189 14.082C213.189 10.267 216.573 7.71106 221.935 7.71106C224.451 7.63545 226.939 8.24517 229.135 9.47504L227.587 13.002C225.848 11.9225 223.833 11.3721 221.787 11.418C218.908 11.418 217.721 12.463 217.721 13.83C217.721 17.862 229.887 14.947 229.887 22.541C229.887 26.429 226.611 28.985 221.066 28.985C217.831 28.983 214.45 28.0471 212.615 26.6431ZM186.263 19.804V8.03302H190.799V19.66C190.799 23.223 192.524 25.131 195.693 25.131C198.825 25.131 200.518 23.26 200.518 19.66V8.03302H204.979V19.804C204.979 25.528 201.561 28.983 195.658 28.983C189.755 28.983 186.263 25.528 186.263 19.804ZM114.624 26.6431L116.315 23.1151C118.368 24.526 120.808 25.2675 123.299 25.238C126.322 25.238 127.399 24.196 127.399 22.938C127.399 18.838 115.199 21.894 115.199 14.082C115.199 10.267 118.584 7.71106 123.947 7.71106C126.463 7.63489 128.951 8.24465 131.147 9.47504L129.6 13.002C127.861 11.9223 125.846 11.3719 123.8 11.418C120.92 11.418 119.732 12.463 119.732 13.83C119.732 17.862 131.899 14.947 131.899 22.541C131.899 26.429 128.623 28.985 123.079 28.985C119.844 28.983 116.459 28.0471 114.624 26.6431ZM85.824 18.3281C85.824 12.2091 90.647 7.70905 97.162 7.70905C103.714 7.70905 108.537 12.2091 108.537 18.3281C108.537 24.4471 103.714 28.983 97.162 28.983C90.647 28.983 85.824 24.4471 85.824 18.3281ZM90.395 18.3281C90.3948 19.6667 90.7916 20.9754 91.5352 22.0885C92.2788 23.2016 93.3358 24.0693 94.5725 24.5817C95.8092 25.094 97.1701 25.2282 98.4831 24.967C99.7961 24.7059 101.002 24.0613 101.949 23.1147C102.895 22.1682 103.54 20.9621 103.801 19.6492C104.062 18.3362 103.928 16.9753 103.416 15.7386C102.903 14.5019 102.036 13.4448 100.922 12.7012C99.8093 11.9576 98.5007 11.5608 97.162 11.561C96.266 11.534 95.374 11.6906 94.5408 12.0211C93.7076 12.3516 92.9507 12.8491 92.3169 13.483C91.6831 14.1168 91.1856 14.8736 90.8551 15.7068C90.5246 16.54 90.368 17.4321 90.395 18.3281ZM23.473 18.3281C23.473 12.2091 28.297 7.70905 34.812 7.70905C41.363 7.70905 46.186 12.2091 46.186 18.3281C46.186 24.4471 41.363 28.983 34.812 28.983C28.297 28.983 23.473 24.4471 23.473 18.3281ZM28.045 18.3281C28.045 19.6665 28.4419 20.9748 29.1854 22.0876C29.929 23.2004 30.9858 24.0678 32.2224 24.58C33.4589 25.0921 34.8195 25.2261 36.1321 24.965C37.4448 24.7039 38.6506 24.0594 39.597 23.113C40.5434 22.1667 41.1879 20.9609 41.449 19.6482C41.7101 18.3355 41.5761 16.9749 41.0639 15.7384C40.5517 14.5019 39.6844 13.445 38.5715 12.7015C37.4587 11.9579 36.1504 11.561 34.812 11.561C33.916 11.534 33.024 11.6906 32.1908 12.0211C31.3576 12.3516 30.6008 12.8491 29.9669 13.483C29.3331 14.1168 28.8356 14.8736 28.5051 15.7068C28.1745 16.54 28.018 17.4321 28.045 18.3281ZM0.0369873 26.6431L1.72797 23.1151C3.78173 24.5259 6.22148 25.2674 8.71301 25.238C11.736 25.238 12.813 24.196 12.813 22.938C12.813 18.838 0.612976 21.894 0.612976 14.082C0.612976 10.267 3.99699 7.71106 9.35999 7.71106C11.8756 7.63504 14.3645 8.24479 16.56 9.47504L15.013 13.002C13.2743 11.9224 11.2591 11.3721 9.21301 11.418C6.33201 11.418 5.14398 12.463 5.14398 13.83C5.14398 17.862 17.311 14.947 17.311 22.541C17.311 26.429 14.035 28.985 8.492 28.985C5.257 28.983 1.87299 28.0471 0.0369873 26.6431ZM292.783 28.623L290.875 24.1591H280.475L278.532 28.623H274.105L283.464 8.03302H287.964L297.287 28.623H292.783ZM281.983 20.7031H289.399L285.691 12.137L281.983 20.7031ZM237.742 28.623V8.03302H242.277V28.623H237.742ZM172.293 28.623L172.255 15.952L165.955 26.319H163.904L157.604 16.2761V28.623H153.285V8.03302H157.172L164.983 20.92L172.683 8.03302H176.571L176.606 28.623H172.293ZM73.33 28.623L73.294 15.952L66.994 26.319H64.942L58.642 16.2761V28.623H54.321V8.03302H58.209L66.02 20.92L73.72 8.03302H77.606L77.642 28.623H73.33ZM192.67 5.40503L197.529 0.476013H202.819L196.558 5.40503H192.67Z" fill="white"/>
</svg>
